<?xml version="1.0" encoding="iso-8859-1"?>
<!-- Generator: Adobe Illustrator 16.0.0, SVG Export Plug-In . SVG Version: 6.00 Build 0)  -->
<!DOCTYPE svg PUBLIC "-//W3C//DTD SVG 1.1//EN" "http://www.w3.org/Graphics/SVG/1.1/DTD/svg11.dtd">
<svg version="1.1" xmlns="http://www.w3.org/2000/svg" xmlns:xlink="http://www.w3.org/1999/xlink" x="0px" y="0px" width="1024px"
	 height="1024px" viewBox="0 0 1024 1024" style="enable-background:new 0 0 1024 1024;" xml:space="preserve">
<g id="Layer_1">
	<rect x="-3" y="-3" style="fill:#FFFFFF;" width="1027" height="1027"/>
</g>
<g id="Layer_2">
	<path style="fill:#2A7766;" d="M873.817,703.17c-19.534,0.975-39.26,1.739-58.69,0.13c-34.832-2.892-45.113-9.371-34.596-48.306
		c6.625-24.519,12.711-49.438,15.995-74.574l118.774,28.257l1.389-5.838l-119.438-28.414c1.378-12.672,1.805-25.234,1.246-37.646
		l138.742,5.897l0.254-5.994l-139.347-5.923c-0.724-10.165-2.122-20.22-4.219-30.142l120.416-11.038l-0.547-5.975l-121.196,11.109
		c-4.531-18.828-11.619-37.152-21.441-54.793c-11.678-20.967-12.377-40.222-2.308-61.318c8.893-18.64,17.304-37.568,24.813-56.799
		c12.312-31.542,24.933-63.057,35.023-95.332c5.546-17.755,7.692-36.976,8.547-55.664c0.661-14.268-8.319-20.656-22.742-20.409
		c-3.853,0.062-8.053,0.264-11.488,1.78c-17.466,7.704-35.36,14.753-51.916,24.145c-19.181,10.885-37.126,23.954-55.593,36.104
		c-11.725,7.715-22.732,16.887-35.274,22.885c-17.798,8.516-35.964,1.289-53.739-2.733c-21.954-4.971-43.636-11.752-65.839-14.877
		c-51.712-7.276-102.648-1.025-152.661,13.188c-10.789,3.071-20.107,0.354-27.528-6.781c-18.188-17.507-35.243-36.203-53.585-53.541
		c-15.57-14.713-31.514-29.261-48.77-41.852c-12.546-9.153-27.484-14.765-44.119-11.006c-7.892,1.784-14.703,5.402-16.822,13.176
		c-3.516,12.919-7.92,26.205-7.973,39.352c-0.265,65.957,12.96,130.284,25.985,194.545c3.979,19.629,7.024,38.803,0.361,58.672
		c-6.825,20.364-13.498,40.795-19.796,61.335l-87.566-7.328l-0.523,6.258l86.22,7.215c-2.707,8.946-5.344,17.912-7.877,26.905
		c-0.824,2.927-1.562,5.848-2.249,8.764l-101.473,3.938l0.243,6.275l99.833-3.874c-3.273,16.115-4.528,32.066-4.114,47.872
		l-73.094,15.874l1.333,6.137l72.015-15.64c1.79,32.989,10.655,65.349,23.342,97.24c7.522,18.936,16.885,37.157,24.012,56.228
		c3.597,9.628,6.009,20.541,5.429,30.672c-0.713,12.414-5.053,24.631-7.951,36.902c-7.796,33-17.372,65.691-23.109,99.044
		c-6.64,38.624-10.449,77.564-12.466,116.728H1027V701.158C975.945,699.889,924.907,700.614,873.817,703.17z"/>
</g>
</svg>
