<?xml version="1.0" encoding="iso-8859-1"?>
<!-- Generator: Adobe Illustrator 16.0.0, SVG Export Plug-In . SVG Version: 6.00 Build 0)  -->
<!DOCTYPE svg PUBLIC "-//W3C//DTD SVG 1.1//EN" "http://www.w3.org/Graphics/SVG/1.1/DTD/svg11.dtd">
<svg version="1.1" xmlns="http://www.w3.org/2000/svg" xmlns:xlink="http://www.w3.org/1999/xlink" x="0px" y="0px" width="1024px"
	 height="1024px" viewBox="0 0 1024 1024" style="enable-background:new 0 0 1024 1024;" xml:space="preserve">
<g id="Layer_1">
	<rect x="-3" y="-3" style="fill:#2A7766;" width="1027" height="1027"/>
	<g>
		<defs>
			<rect id="SVGID_1_" y="-3" width="1027" height="1027"/>
		</defs>
		<clipPath id="SVGID_2_">
			<use xlink:href="#SVGID_1_"  style="overflow:visible;"/>
		</clipPath>
		<path style="clip-path:url(#SVGID_2_);" d="M342.275,2180.062c-4.097-1.5-6.583-2.544-9.142-3.317
			c-9.296-2.779-13.99-8.553-14.115-18.203c-0.286-23.373,8.208-43.368,27.074-56.901c7.398-5.312,18.606-5.429,28.152-7.612
			c8.466-1.942,16.99-3.699,25.566-5.104c10.047-1.654,15.151-8.774,17.621-17.24c5.538-18.967,11.048-38.051,14.665-57.444
			c3.075-16.476,3.597-33.429,5.055-50.189c1.604-18.52-7.466-34.463-13.533-50.879c-10.906-29.507-24.13-58.162-35.016-87.676
			c-12.283-33.287-20.96-67.5-24.653-103.076c-5.736-55.357-12.826-110.584-19.666-165.824c-1.845-14.908-3.861-29.935-7.634-44.423
			c-2.662-10.246-7.531-20.202-12.958-29.381c-17.534-29.609-36.803-58.227-53.513-88.278
			c-25.388-45.636-46.276-93.508-61.059-143.605c-18.269-61.898-24.417-125.358-22.784-190.01
			c1.301-51.614,5.148-102.891,13.87-153.624c5.737-33.353,15.313-66.044,23.109-99.044c2.898-12.271,7.238-24.488,7.951-36.902
			c0.58-10.131-1.832-21.044-5.429-30.672c-7.127-19.07-16.489-37.292-24.012-56.228c-21.455-53.931-31.994-109.201-15.835-166.586
			c8.936-31.725,19.07-63.132,29.544-94.385c6.663-19.869,3.618-39.043-0.361-58.672c-13.024-64.261-26.25-128.588-25.985-194.545
			c0.053-13.147,4.458-26.433,7.973-39.352c2.119-7.774,8.93-11.392,16.822-13.176c16.634-3.758,31.573,1.854,44.119,11.006
			c17.255,12.591,33.199,27.139,48.77,41.852c18.342,17.338,35.397,36.034,53.585,53.541c7.421,7.135,16.74,9.852,27.528,6.781
			c50.013-14.213,100.949-20.464,152.661-13.188c22.203,3.125,43.885,9.906,65.839,14.877c17.775,4.022,35.941,11.249,53.739,2.733
			c12.542-5.999,23.55-15.17,35.274-22.885c18.467-12.149,36.412-25.219,55.593-36.104c16.556-9.392,34.45-16.441,51.916-24.145
			c3.436-1.516,7.636-1.717,11.488-1.78c14.423-0.247,23.403,6.141,22.742,20.409c-0.854,18.688-3.001,37.909-8.547,55.664
			c-10.091,32.275-22.712,63.79-35.023,95.332c-7.51,19.231-15.921,38.159-24.813,56.799c-10.069,21.097-9.37,40.351,2.308,61.318
			c23.949,43.014,31.67,90.082,25.61,138.651c-3.222,25.763-9.452,51.303-16.239,76.422c-10.518,38.935-0.236,45.414,34.596,48.306
			c19.431,1.609,39.156,0.845,58.69-0.13c76.775-3.841,153.433-3.574,230.209,1.435c61.711,4.026,122.785,12.401,183.453,23.3
			c35.316,6.351,69.929,16.979,104.568,26.704c24.211,6.796,48.093,14.88,71.832,23.22c20.042,7.041,39.673,15.261,59.479,22.987
			c22.034,8.597,44.018,17.33,66.103,25.811c13.687,5.254,27.322,10.756,41.334,15.007c10.54,3.199,21.601,4.737,32.479,6.748
			c18.726,3.468,31.83-7.918,45.575-17.536c18.955-13.264,35.216-29.56,47.99-48.546c15.07-22.38,27.418-46.493,35.045-72.638
			c5.627-19.287,12.724-38.384,15.909-58.096c5.545-34.374,10.788-69.073,12.134-103.794c1.773-45.978,1.369-92.209-1.383-138.137
			c-1.653-27.642-8.171-55.265-15.077-82.238c-6.066-23.687-14.033-47.233-24.254-69.415c-10.07-21.843-23.435-42.273-36.421-62.643
			c-15.894-24.917-35.685-46.724-58.859-65.063c-15.173-12.003-31.185-22.998-47.306-33.714
			c-10.429-6.927-21.447-13.12-32.706-18.596c-18.851-9.157-38.281-17.125-57.146-26.252c-16.771-8.12-22.903-20.539-20.314-38.425
			c2.743-18.942,15.453-33.055,32.104-36.651c20.358-4.395,39.995-1.125,59.698,4.016c34.618,9.031,68.369,20.673,100.244,36.769
			c20.217,10.205,39.465,22.576,58.256,35.299c33.935,22.987,63.715,50.747,90.027,82.217
			c20.373,24.374,39.502,49.615,53.831,78.099c12.368,24.602,25.953,48.792,35.815,74.394
			c10.399,27.009,18.232,55.181,25.064,83.361c15.799,65.103,20.638,131.121,13.137,197.902
			c-4.804,42.76-11.481,85.202-22.478,126.801c-10.649,40.27-21.549,80.519-34.14,120.204
			c-10.598,33.406-23.72,66.006-35.833,98.925c-10.758,29.241-21.703,58.414-32.478,87.655
			c-4.029,10.933-7.235,22.205-11.797,32.904c-11.627,27.282-9.531,54.555-1.314,82.067c10.979,36.806,22.165,73.552,32.696,110.485
			c13.923,48.871,13.513,98.782,8.144,148.646c-4.805,44.655-10.994,89.321-5.634,134.14c2.352,19.675,8.266,39.429,15.754,57.845
			c9.2,22.631,21.07,44.283,33.028,65.663c9.767,17.451,21.256,33.941,32.162,50.739c16.68,25.676,31.941,51.798,38.825,82.292
			c8.656,38.39,17.056,76.699,19.381,116.172c2.963,50.196-0.186,99.877-10.239,149.103c-3.426,16.761-6.258,33.786-11.561,49.975
			c-8.047,24.549-20.857,46.979-43.886,60.293c-10.841,6.267-24.124,9.649-36.692,11.298c-22.924,2.992-46.004,4.418-68.303-5.568
			c-26.521-11.877-35.589-34.287-31.728-60.771c3.421-23.425,20.651-36.162,37.544-48.961c7.135-5.404,13.357-10.597,16.043-19.665
			c11.627-39.202,19.084-78.944,14.841-119.984c-1.544-14.967-4.605-30.712-17.548-40.119
			c-10.459-7.612-22.734-13.342-34.979-17.733c-18.021-6.457-36.811-10.715-55.124-16.393c-30.92-9.591-62.271-18.145-92.411-29.801
			c-26.161-10.121-51.571-22.726-76.047-36.486c-20.461-11.495-39.619-25.558-58.388-39.752
			c-25.064-18.969-46.012-42.348-65.382-66.956c-16.08-20.425-30.995-41.745-46.82-62.37c-5.952-7.757-12.393-15.362-19.705-21.791
			c-11.716-10.311-31.882-4.213-38.457,11.863c-10.192,24.919-18.57,50.593-29.359,75.231c-7.547,17.217-17.622,33.339-26.94,49.747
			c-11.48,20.196-23.469,40.097-34.973,60.28c-4.125,7.227-3.323,15.024-0.851,22.724c6.324,19.674,12.037,39.568,19.084,58.979
			c6.855,18.894,0.42,34.25-10.975,48.415c-18.805,23.389-41.597,42.781-65.521,60.493c-24.675,18.262-50.762,34.623-76.342,51.643
			c-14.438,9.605-28.713,19.541-43.753,28.11c-27.33,15.548-54.887,30.748-82.895,45.017c-22.666,11.547-45.555,23.206-69.479,31.58
			c-15.783,5.532-33.521,6.834-50.476,7.392c-34.329,1.135-68.272-1.69-101.758-11.229c-37.626-10.709-46.73-57.544-30.529-80.233
			c10.171-14.238,25.992-22.769,44.261-21.997c14.318,0.603,28.603,3.243,42.767,5.751c14.238,2.514,27.169-1.655,39.023-8.039
			c22.609-12.171,44.798-25.211,66.596-38.804c16.181-10.081,31.516-21.54,47.137-32.513c9.781-6.862,19.483-13.85,29.081-20.955
			c28.102-20.812,34.993-50.343,33.31-82.997c-1.243-24.129-9.385-46.26-21.616-66.949c-14.4-24.345-28.271-49.069-32.912-77.369
			c-4.376-26.705-6.949-53.697-10.937-80.477c-1.396-9.427-4.529-18.612-7.089-27.851c-2.323-8.35-8.886-12.275-16.71-12.812
			c-8.611-0.597-17.57-0.686-25.984,0.991c-43.253,8.576-86.086,7.576-128.714-3.67c-4.06-1.065-8.238-1.69-12.4-2.287
			c-19.902-2.824-28.756,1.942-37.125,20.35c-17.298,37.988-29.934,77.614-41.356,117.676c-8.554,29.97-16.835,60.037-26.13,89.777
			c-6.949,22.256-14.357,44.475-23.403,65.943c-6.581,15.643-16.018,30.102-24.432,44.959
			c-8.252,14.576-16.726,29.036-25.257,43.451c-7.751,13.076-15.755,25.989-23.549,39.037
			c-11.826,19.784-23.757,39.517-35.278,59.478c-8.526,14.769-16.712,29.743-24.647,44.834
			c-9.193,17.474-18.313,35.009-26.792,52.827c-7.194,15.131-14.747,30.295-19.777,46.195
			c-6.758,21.417-12.106,43.378-16.459,65.421c-4.127,20.864-14.652,35.271-34.155,43.995
			c-42.577,19.042-85.697,31.625-132.62,16.887c-13.768-4.327-27.756-7.635-37.95-18.777c-14.011-15.298-16.224-33.377-9.671-52.057
			c7.538-21.475,22.792-37.523,40.634-51.197C337.296,2184.776,339.163,2182.856,342.275,2180.062z"/>
	</g>
</g>
<g id="Layer_3">
</g>
<g id="Layer_2">
	
		<line style="fill:none;stroke:#000000;stroke-width:6;stroke-miterlimit:10;" x1="734.08" y1="503.091" x2="914.071" y2="486.592"/>
	
		<line style="fill:none;stroke:#000000;stroke-width:6;stroke-miterlimit:10;" x1="756.784" y1="532.004" x2="937.367" y2="539.68"/>
	
		<line style="fill:none;stroke:#000000;stroke-width:6;stroke-miterlimit:10;" x1="740.156" y1="563.926" x2="915.995" y2="605.758"/>
	
		<line style="fill:none;stroke:#000000;stroke-width:6.2798;stroke-miterlimit:10;" x1="305.08" y1="497.091" x2="107.908" y2="480.592"/>
	
		<line style="fill:none;stroke:#000000;stroke-width:6.2798;stroke-miterlimit:10;" x1="280.209" y1="526.004" x2="82.388" y2="533.68"/>
	
		<line style="fill:none;stroke:#000000;stroke-width:6.2798;stroke-miterlimit:10;" x1="298.424" y1="557.926" x2="105.8" y2="599.758"/>
</g>
</svg>
